<svg width="64" height="84" viewBox="0 0 64 84" fill="none" xmlns="http://www.w3.org/2000/svg" aria-hidden="true">
    <!-- Stem -->
    <path d="M30.5 26 C30.5 38, 30.5 52, 30.5 66"
          stroke="#3F5239" stroke-width="1.6" stroke-linecap="round" fill="none"/>

    <!-- Right leaf (sage green, pointing up-right) -->
    <path d="M31 30 C40 24, 51 28, 54 36 C46 41, 35 38, 31 36 Z"
          fill="#9CAF8C"/>
    <path d="M32 32 C38 32, 46 34, 52 36"
          stroke="#3F5239" stroke-width="0.8" stroke-linecap="round" fill="none" opacity="0.55"/>

    <!-- Lower-left leaf (deeper olive, pointing down-left) -->
    <path d="M30 50 C20 50, 10 56, 8 64 C16 66, 26 60, 30 56 Z"
          fill="#7A8E70"/>
    <path d="M30 52 C24 56, 16 60, 10 63"
          stroke="#3F5239" stroke-width="0.8" stroke-linecap="round" fill="none" opacity="0.55"/>

    <!-- Flower head: peach/coral oval bloom with subtle cleft -->
    <path d="M22 14 C22 7, 27 3, 32 3 C35 3, 37 5, 38 8 C39 5, 41 3, 44 3 C49 3, 52 7, 52 14 C52 23, 45 28, 37 28 C29 28, 22 23, 22 14 Z"
          fill="#E48172"/>

    <!-- Highlight on lower-left of bloom -->
    <path d="M24 14 C25 11, 28 8, 33 8 C30 11, 27 15, 26 19 C25 18, 24 16, 24 14 Z"
          fill="#F4B5A6"/>

    <!-- Tiny cream highlight (center) -->
    <circle cx="36" cy="14" r="1.4" fill="#FFEEDC"/>
</svg>
