<svg width="112" height="48" viewBox="0 0 112 48" fill="none" xmlns="http://www.w3.org/2000/svg">
<g clip-path="url(#clip0_8209_115731)">
<path d="M48.1258 0.995413C47.5068 1.40896 47.0553 1.93101 46.6482 2.54747C45.1482 2.57295 43.737 3.00226 42.6716 4.10869C41.6562 5.16318 41.31 6.44307 41.3574 7.87648L41.3619 7.98488C41.5507 9.27139 42.0693 10.3254 43.1182 11.1191C43.3664 11.3069 43.9186 11.5802 44.4809 11.8584C45.206 12.2172 45.9479 12.5843 46.0764 12.7872C46.5189 13.4195 47.7011 13.7889 48.4337 13.9234C49.5806 14.1338 50.6043 14.0395 51.7081 13.7124C53.2818 16.1522 53.9457 18.7146 54.3107 21.5756L54.1806 21.8178C53.8523 21.5292 53.5817 21.0849 53.3133 20.644C53.1228 20.331 52.9332 20.0198 52.7249 19.7673C50.6318 17.2275 47.4511 15.4309 44.0827 15.6205C43.4169 15.6579 41.8827 15.8129 41.3627 16.2578C41.2842 16.8746 41.9589 17.8468 42.3426 18.3379C44.5878 21.2121 48.2388 21.919 51.6359 22.5768C51.9479 22.6372 52.2577 22.6972 52.5642 22.7584C52.5867 22.7629 52.6106 22.7674 52.6356 22.7722C52.8959 22.8216 53.267 22.8921 53.3314 23.1438L53.2962 23.236C49.8277 22.6523 46.206 23.0732 43.2822 25.1692C40.783 26.9608 39.3482 29.7888 38.8638 32.7807C38.2887 36.332 38.8889 40.3064 41.0266 43.2631C42.7549 45.6536 45.3076 47.1702 48.2136 47.6297C51.4253 48.1373 54.9151 47.5405 57.5694 45.597C60.0882 43.7527 61.5142 40.9335 61.9762 37.8913C62.532 34.2298 62.0214 30.3373 59.7794 27.3065C58.8112 25.9976 57.6687 25.1071 56.277 24.2866C56.2468 24.2688 56.2164 24.252 56.1863 24.2353C56.0153 24.1404 55.8552 24.0515 55.8083 23.8371C58.9291 22.7692 62.0159 21.4831 64.5005 19.2478C65.7058 18.1634 67.8066 15.6364 67.8927 14.0374C67.7515 13.811 67.7074 13.77 67.4472 13.6935C66.9079 13.5343 66.2286 13.5129 65.6617 13.5008C62.6478 13.4356 60.1037 14.8133 58.2311 17.12C58.12 17.2567 57.9545 17.5141 57.7701 17.801C57.4106 18.3601 56.9791 19.0312 56.738 19.1392C56.7164 19.1489 56.6946 19.1573 56.6727 19.1657C56.661 19.1702 56.6492 19.1747 56.6376 19.1794C56.839 18.349 57.1057 17.5254 57.3723 16.7024C57.5667 16.1019 57.7612 15.5017 57.9301 14.8994L58.0183 14.8297C60.1455 13.1403 61.6685 10.5973 61.9641 7.87747C62.1846 5.85286 61.706 4.08189 60.4312 2.48825C60.2205 2.59776 60.0121 2.7108 59.8114 2.83663C58.0061 3.97128 57.0335 6.16396 56.599 8.18085C56.1623 10.2063 56.0619 13.1313 57.2254 14.9301C56.4932 17.2319 55.7829 19.5403 55.0937 21.8551C54.8114 18.8752 53.9281 15.8849 52.368 13.3274C52.6212 13.0972 52.8561 12.8475 53.07 12.5808C53.9633 11.4803 55.0286 9.36723 54.8808 7.92698C54.718 7.71778 54.5371 6.7402 54.3831 5.90805C54.2963 5.43871 54.218 5.01563 54.1563 4.80279C53.8542 3.75657 53.4461 2.77829 52.9808 1.79559C52.5285 1.10106 51.8568 0.544368 51.031 0.361085C50.0067 0.1338 48.9842 0.422183 48.1258 0.995413ZM49.2024 23.9902C50.6493 23.8474 51.9846 23.9911 53.2432 24.7831C55.2746 26.0618 56.2583 28.4551 56.7688 30.7029C57.6445 34.5642 57.64 40.8388 55.4213 44.2859C54.518 45.6891 53.3535 46.3726 51.7572 46.7189C50.2681 46.879 48.8494 46.731 47.5729 45.8887C45.476 44.5049 44.5552 41.8757 44.07 39.5204C43.2573 35.5755 43.1464 29.9021 45.4847 26.4073C46.4205 25.0085 47.5852 24.3229 49.2024 23.9902Z" fill="#353C3A"/>
<path d="M46.6481 2.54747C47.0552 1.93101 47.5066 1.40896 48.1257 0.995412C48.984 0.422183 50.0066 0.133802 51.0309 0.361087C51.8567 0.54437 52.5284 1.10106 52.9806 1.79559C51.5659 2.20517 51.0834 2.74896 50.263 3.96577C50.0473 4.55841 49.8625 5.17851 49.8102 5.81029C50.8056 6.68756 51.4452 7.67478 51.5336 9.03352C51.5441 9.19585 51.5562 9.22607 51.4675 9.35763L51.1058 9.25066C50.7834 9.48611 50.7027 9.8873 50.6426 10.2634C50.5354 10.9349 50.5197 11.6592 50.5329 12.3388C49.7024 12.0957 48.9712 12.0114 48.1069 12.0516C47.3956 12.2276 46.7244 12.4329 46.0763 12.7872C45.8481 12.4269 43.6863 11.5491 43.1181 11.1191C42.0692 10.3254 41.5506 9.27139 41.3618 7.98488L41.3573 7.87648C41.3098 6.44307 41.6561 5.16318 42.6716 4.10869C43.737 3.00226 45.1481 2.57295 46.6481 2.54747Z" fill="#EAE9E8"/>
<path d="M46.6481 2.54747C47.0552 1.93101 47.5066 1.40896 48.1257 0.995412C48.984 0.422183 50.0066 0.133802 51.0309 0.361087C51.8567 0.54437 52.5284 1.10106 52.9806 1.79559C51.5659 2.20517 51.0834 2.74896 50.263 3.96577C50.0473 4.55841 49.8625 5.17851 49.8102 5.81029L48.8166 5.40943C48.4202 5.42002 47.6392 5.34039 47.2996 5.51177L46.8617 5.72472C46.6929 5.87822 46.4957 6.10959 46.3016 6.2213L45.9347 6.85486L45.6806 6.87051C44.4995 6.84934 43.3844 6.97815 42.3034 7.48818C41.9979 7.63243 41.6772 7.88916 41.3618 7.98488L41.3573 7.87648C41.3098 6.44307 41.6561 5.16318 42.6716 4.10869C43.737 3.00226 45.1481 2.57295 46.6481 2.54747Z" fill="#DB8778"/>
<path d="M48.8164 5.40941C48.9973 4.92484 49.1497 4.32901 49.5232 3.95935C49.8603 3.82305 49.9281 3.86771 50.2628 3.96575C50.0471 4.55839 49.8623 5.17848 49.81 5.81027L48.8164 5.40941Z" fill="#353C3A"/>
<path d="M46.8613 5.7247C46.5043 5.47922 46.0937 5.22867 45.8048 4.90147C45.6174 4.68941 45.5193 4.45859 45.5324 4.17584L45.7202 4.08321C46.5108 4.25656 46.8488 4.90324 47.2992 5.51176L46.8613 5.7247Z" fill="#353C3A"/>
<path d="M45.68 6.87052C45.5313 6.8521 45.3637 6.83887 45.2193 6.7963C44.9781 6.72517 44.9393 6.62526 44.8477 6.41805C44.9505 6.2738 44.9751 6.23399 45.1385 6.1622C45.5333 5.98873 45.9143 6.07662 46.301 6.2213L45.9341 6.85486L45.68 6.87052Z" fill="#353C3A"/>
<path d="M47.6498 3.19026C47.7832 3.24794 47.9141 3.31675 47.9985 3.44049C48.3368 3.93729 48.2802 4.92903 48.2187 5.50468L47.7485 5.36507C47.6841 5.29449 47.6341 5.23836 47.5944 5.15025C47.3173 4.53577 47.4318 3.80176 47.6498 3.19026Z" fill="#353C3A"/>
<path d="M45.6807 6.87051L45.9348 6.85485C45.6251 8.02612 45.4581 9.21073 46.1064 10.3112C46.5692 11.0967 47.3198 11.6255 48.1069 12.0516C47.3956 12.2276 46.7245 12.4329 46.0763 12.7872C45.8482 12.4269 43.6864 11.5491 43.1181 11.1191C42.0693 10.3254 41.5506 9.27139 41.3618 7.98488C41.6772 7.88915 41.9979 7.63242 42.3035 7.48818C43.3844 6.97814 44.4996 6.84934 45.6807 6.87051Z" fill="#EBB19F"/>
<path d="M56.637 19.1794C56.6701 19.166 56.7042 19.1541 56.7373 19.1392C57.1024 18.9757 57.903 17.523 58.2305 17.12C60.103 14.8133 62.6472 13.4356 65.6611 13.5008C66.2279 13.5129 66.9072 13.5343 67.4465 13.6934C67.7068 13.77 67.7509 13.811 67.892 14.0374C67.806 15.6363 65.7052 18.1634 64.4999 19.2477C62.0153 21.4831 58.9286 22.7692 55.8077 23.8371C57.4288 21.7843 59.3256 19.7698 61.3547 18.1195C62.0605 17.5454 65.0413 15.721 65.2575 15.3457C65.1615 15.2832 65.1483 15.2434 65.0292 15.2607C62.334 15.6528 57.1421 21.19 55.5298 23.2835C55.7338 21.858 56.0845 20.5119 56.637 19.1794Z" fill="#97A898"/>
<path d="M53.2967 23.236L53.332 23.1438C53.2614 22.868 52.8225 22.8098 52.5647 22.7584C48.9217 22.0305 44.7947 21.4761 42.3432 18.3379C41.9595 17.8468 41.2847 16.8746 41.3632 16.2578C41.8833 15.8129 43.4175 15.6579 44.0833 15.6205C47.4517 15.4309 50.6324 17.2275 52.7255 19.7673C53.2272 20.3754 53.6198 21.3243 54.1812 21.8178L54.3113 21.5756C54.3686 21.9163 54.3918 22.1844 54.3422 22.5303C53.9374 22.4006 53.2978 21.5696 52.9174 21.2684C50.7704 19.5665 47.0047 17.2518 44.1632 17.3334L44.0898 17.4337C44.7975 17.9849 45.9935 18.2039 46.8377 18.4967C49.3844 19.3801 52.2239 21.0552 53.847 23.2584L53.7599 23.3563C53.6187 23.3242 53.4202 23.3058 53.2967 23.236Z" fill="#97A898"/>
<path d="M60.4303 2.48824C61.7051 4.08187 62.1837 5.85284 61.9631 7.87745C61.6676 10.5973 60.1446 13.1403 58.0173 14.8296L57.9291 14.8993C58.421 12.4725 58.786 9.91441 59.5072 7.55102C59.6649 7.03691 60.0156 6.10858 59.7553 5.61916L59.5734 5.69194C58.4629 7.44957 57.9005 12.6257 57.2245 14.9301C56.061 13.1312 56.1614 10.2063 56.5981 8.18083C57.0326 6.16394 58.0052 3.97126 59.8105 2.83661C60.0112 2.71078 60.2196 2.59774 60.4303 2.48824Z" fill="#97A898"/>
<path d="M50.2629 3.96579C51.0832 2.74897 51.5657 2.20518 52.9805 1.79561C53.4458 2.7783 53.8539 3.75659 54.156 4.8028C54.327 5.39301 54.6258 7.5998 54.8806 7.927C53.9763 8.10973 53.3488 8.59617 52.8459 9.36173C52.566 9.78818 52.3469 10.2742 52.1444 10.7422C51.9205 10.3278 51.558 9.81652 51.4673 9.35765C51.556 9.22608 51.544 9.19587 51.5334 9.03354C51.445 7.67479 50.8054 6.68758 49.8101 5.81031C49.8623 5.17852 50.0472 4.55843 50.2629 3.96579Z" fill="#EBB19F"/>
<path d="M93.4029 23.0444C92.5395 23.0187 91.6793 23.0663 90.8192 23.1381C88.7294 23.5596 86.2194 24.2721 84.9688 26.152C84.3447 27.0902 84.0667 28.249 84.2884 29.3625C84.4517 30.1805 84.8895 30.9282 85.5975 31.3877C86.2525 31.8126 87.1932 32.0067 87.9596 31.8349C88.5959 31.6923 89.1374 31.2795 89.4804 30.7297C89.8697 30.1054 89.9833 29.3133 89.8156 28.5997C89.712 28.1594 89.411 27.8128 89.1186 27.476C88.6328 26.9165 88.1704 26.3838 88.6742 25.4931C89.0845 24.7689 90.0572 24.3373 90.8291 24.1591C92.0223 23.8837 93.4482 23.9679 94.5025 24.6369C95.5336 25.2914 96.1092 26.3666 96.364 27.5366C96.6783 28.988 96.7522 31.1053 95.9063 32.3726C95.139 33.5226 93.1868 33.9742 90.9937 34.4815C87.8506 35.2086 84.2124 36.0502 82.8581 39.2264C82.3372 40.4472 82.4931 41.7004 82.6105 42.6438C82.6758 43.1683 82.7291 43.5971 82.6475 43.8711C82.6618 43.89 82.6762 43.9086 82.6905 43.9276C82.8601 44.156 82.9973 44.4024 83.1346 44.649C83.2348 44.829 83.3351 45.009 83.4481 45.1825C84.3899 46.6302 85.6603 47.2595 87.3398 47.5182C89.8741 47.9087 92.684 47.3523 94.7627 45.8124C95.259 45.4447 96.1765 44.6184 96.2746 43.9806C96.2831 43.9918 96.2915 44.0029 96.2996 44.0141L96.3099 44.029C96.6138 44.4844 96.7222 44.94 96.8241 45.3685C97.0383 46.2697 97.2241 47.051 99.1396 47.4583C100.577 47.7639 102.802 47.609 104.077 46.7614C104.338 46.5882 104.607 46.3185 104.658 45.9979C104.665 45.9557 104.666 45.9244 104.666 45.8909C104.666 45.8644 104.665 45.8364 104.665 45.8006C104.643 45.7803 104.625 45.7625 104.609 45.7468C104.514 45.6539 104.497 45.6366 104.324 45.641C104.071 45.6475 103.812 45.6938 103.553 45.74C102.895 45.8577 102.238 45.9751 101.688 45.4379C100.872 44.641 100.888 42.7965 100.898 41.6132C100.899 41.5218 100.899 41.4343 100.9 41.3516C100.92 38.793 100.925 36.2343 100.917 33.6756C100.907 27.8911 100.722 23.262 93.4029 23.0444ZM96.0198 33.7246L96.3352 33.7149L96.4301 33.847C96.5209 34.5829 96.4949 35.3228 96.469 36.0626C96.457 36.4013 96.4451 36.74 96.4444 37.0783C96.4434 37.5246 96.4585 37.9789 96.4738 38.4362C96.5102 39.5297 96.5472 40.6406 96.3662 41.6956C96.2647 42.2916 96.0463 42.8621 95.7254 43.3748C95.0196 44.4997 93.8539 45.1993 92.5715 45.4731C91.0529 45.7972 89.8608 45.4616 88.5838 44.6427C88.5061 44.5046 88.431 44.3729 88.3587 44.2461C87.6118 42.936 87.1659 42.1538 87.3167 40.405C87.6008 37.1023 90.8829 35.8751 93.5772 34.8678L93.7845 34.7903L93.929 34.736C94.0301 34.6979 94.1422 34.6579 94.2605 34.6156L94.2622 34.615C94.8277 34.4129 95.5401 34.1584 95.9273 33.8114C95.9401 33.8001 95.9526 33.7886 95.9649 33.7769C95.9833 33.7595 96.0013 33.7419 96.0198 33.7246Z" fill="#353C3A"/>
<path d="M93.8249 34.7749C93.7918 34.7874 93.7585 34.7998 93.7251 34.8123L93.7841 34.7902L93.8249 34.7749Z" fill="#EAE9E8"/>
<path d="M17.914 10.0016C18.4484 9.94308 19.0286 9.96282 19.5645 10.0156C21.63 10.2026 23.5348 11.2085 24.8538 12.8089C25.7345 13.8962 26.2474 15.2146 26.0868 16.6243C25.9929 17.4493 25.6847 18.2467 25.0153 18.7722C24.2999 19.3339 23.275 19.6123 22.3732 19.5011C21.6138 19.4073 20.951 19.0057 20.488 18.3993C20.0758 17.8594 19.8962 17.0557 19.997 16.387C20.2184 14.9183 21.7566 14.7832 22.733 14.0432C22.9954 13.8445 23.1055 13.6429 23.1528 13.3208C23.0931 12.9445 22.9398 12.6991 22.6867 12.4263C21.7474 11.4143 20.3174 10.9475 18.9634 10.9136C17.7971 10.8843 16.6425 11.1953 15.7958 12.0319C13.7741 14.0291 14.3287 20.3323 14.3347 23.0667C15.6882 23.0794 23.4379 22.84 24.1363 23.3541C24.2049 23.5817 24.1749 23.7136 24.1164 23.9411C23.5859 24.3038 15.684 24.1117 14.3269 24.1313L14.3381 31.9521C15.0355 31.9535 15.7361 31.9625 16.4328 31.9333C21.3391 31.7283 19.8702 28.1867 21.0494 27.0138C21.1729 26.891 21.2372 26.9246 21.4077 26.9246C21.7491 27.3775 21.5951 35.8448 21.5949 37.1157C21.5986 37.414 21.5772 37.7059 21.5527 38.0028L21.342 38.1747C21.069 38.178 21.002 38.2203 20.7886 38.038C20.6219 36.6643 20.2281 34.9217 19.2027 33.9363C17.9314 32.7146 15.9592 32.9707 14.338 32.9915C14.3286 35.3253 13.8126 43.829 15.3083 45.4504C16.1268 46.3378 17.6269 46.2206 18.2034 46.9429L18.1779 47.1009C17.8574 47.2784 17.4638 47.2883 17.1047 47.3032C16.0738 47.3459 6.81209 47.3233 6.30327 47.1687C6.20137 47.1378 6.24063 47.132 6.1352 47.1454C6.11524 47.148 6.09594 47.154 6.07642 47.1583L6.02481 47.0366C6.1642 46.5145 8.28465 46.1017 8.89107 45.4687C10.2203 44.0812 9.739 35.4015 9.72577 33.009C8.79193 32.9941 6.92348 33.3203 6.22221 32.7444C6.09186 32.4898 6.05569 32.4425 6.08513 32.1624C6.60322 31.6991 8.97962 31.9205 9.71673 31.9182C9.72864 29.3101 9.72687 26.7019 9.71143 24.0937C8.57699 24.1149 7.05636 24.3147 6.02724 23.7717L6 23.4467C6.70744 22.8562 8.79799 23.0732 9.71827 23.0805C9.67713 19.6933 9.7261 15.6595 11.9727 12.8852C13.4597 11.0488 15.6362 10.2393 17.914 10.0016Z" fill="#353C3A"/>
<path d="M34.3378 8.2858L34.465 8.31083C34.6382 8.51353 34.6385 8.62226 34.6519 8.88053C34.7968 11.687 34.6409 14.584 34.6398 17.4007L34.6351 35.2195C34.6348 37.3586 34.3277 43.1128 35.0078 44.7918C35.7627 46.6557 37.5262 46.0672 38.0947 46.9428L38.0058 47.1761C37.4909 47.3764 28.6411 47.2684 27.2133 47.3123C27.1003 47.312 27.1226 47.3244 27.0383 47.291C26.8217 47.205 26.8275 47.1195 26.7368 46.9197C26.951 46.1844 28.5242 46.4811 29.1658 45.7673C29.722 45.1486 29.9387 44.326 30.0403 43.5214C30.2512 41.8538 30.1866 40.1403 30.1859 38.4621L30.1795 31.3953L30.1745 21.2761C30.1772 19.0296 30.2339 16.7697 30.1258 14.5257C30.007 12.0578 30.0908 11.5975 27.6512 10.8425C27.4048 10.7662 27.0545 10.6839 26.8718 10.4913C26.7568 10.37 26.7911 10.3287 26.7883 10.1722L26.8909 10.1852C27.0839 9.96126 27.9697 9.91307 28.2794 9.8737C30.3983 9.60396 32.4179 9.26232 34.3378 8.2858Z" fill="#353C3A"/>
<path d="M70.3198 22.91L70.6517 22.9518C70.6782 22.9931 70.7212 23.053 70.7399 23.1021C70.9869 23.7463 70.8513 28.0608 70.6021 28.6479C70.9583 28.3381 71.1116 27.9007 71.3233 27.4892C72.0721 26.0346 72.9973 24.7584 74.4916 23.9949C76.0443 23.2015 78.0591 22.7881 79.7431 23.3549C80.6782 23.6695 81.4337 24.3149 81.8626 25.2067C82.3093 26.1369 82.3975 27.2318 82.038 28.2059C81.7446 28.9985 81.1558 29.7055 80.3794 30.0599C79.6438 30.3957 78.8278 30.3668 78.0834 30.0696C77.3313 29.769 76.6939 29.2318 76.3873 28.4695C75.7962 27.0033 76.5913 26.4731 77.049 25.2676C77.1383 25.0344 77.1218 24.9624 77.0192 24.7437C76.7049 24.5923 76.3752 24.657 76.0498 24.7351C71.9078 25.7284 70.9362 30.6237 70.8524 34.2768C70.8315 35.1766 70.8645 38.3308 70.8645 38.3308C70.8645 38.3308 70.8303 41.3625 70.8645 42.2334C70.9472 44.3494 71.0928 45.7842 73.3557 46.4631C73.6866 46.5624 74.1078 46.6241 74.3604 46.8724C74.4277 46.9381 74.3946 47.0578 74.3935 47.1479C74.3681 47.1672 74.3427 47.1878 74.3174 47.2059C74.1773 47.3023 63.638 47.3389 63.0535 47.1925L62.9829 46.9497C63.2266 46.0298 64.9977 46.4904 65.6803 45.6215C66.02 45.189 66.1512 44.6252 66.2284 44.0921C66.6442 41.2312 66.4435 38.1397 66.4368 35.2434C66.4313 32.8439 66.5846 30.288 66.2582 27.9173C65.8049 24.6185 64.604 26.1673 63.2399 25.1282C63.1208 24.8679 63.1395 24.8401 63.2046 24.557C65.5281 24.1171 68.1076 24.0974 70.2437 22.9516L70.3198 22.91Z" fill="#353C3A"/>
</g>
<defs>
<clipPath id="clip0_8209_115731">
<rect width="98.6667" height="47.5185" fill="white" transform="translate(6 0.283287)"/>
</clipPath>
</defs>
</svg>
